<svg width="313" height="156" viewBox="0 0 313 156" fill="none" xmlns="http://www.w3.org/2000/svg">
<path d="M85.3334 2.60001C85.0667 3.53335 82.4 19.2667 79.3334 37.4C74.4 67.4 68.6667 92.3333 66.2667 94.4667C65.7334 94.8667 61.4667 96.6 56.6667 98.3333C51.8667 99.9333 40 105.133 30.2667 109.8C8.66669 120.2 0.666687 127.133 0.666687 135.4C0.666687 142.467 4.40002 146.867 13.0667 150.067C26.9334 155.267 57.0667 157.133 78.9334 154.2C102.533 151.133 134.267 140.467 149.867 130.333C158.267 125 169.6 112.733 172.8 105.667C178 94.3333 175.067 78.0667 166.533 70.0667C155.2 59.5333 127.333 55.6667 99.7334 60.8667C96.5334 61.5333 94 61.8 94 61.6667C94 61.4 97.7334 58.8667 102.4 55.8C124.667 41.2667 133.333 24.2 123.467 14.2C119.067 9.93335 116 9.40001 109.467 12.2C103.333 14.7333 96.1334 23.5333 87.7334 39C83.3334 47.1333 80.8 50.7333 81.2 48.3333C82.4 41.9333 88.6667 2.33335 88.6667 1.66668C88.6667 0.200012 85.8667 1.13335 85.3334 2.60001ZM122 17C130.8 25.8 117.2 43.6667 90 59C85.3334 61.6667 81.3334 63.4 80.9334 63.1333C80 62.2 94.1334 33.8 99.4667 25.8C106.667 15 116.267 11.2667 122 17ZM141.867 62.3333C150.4 63.8 159.2 67.4 163.867 71.5333C171.867 78.6 174.267 94.8667 168.933 106.6C160.533 125.667 128.533 142.067 84.2667 149.667C61.6 153.667 26.2667 151.667 11.7334 145.667C2.66669 141.8 1.20002 133.267 8.53335 126.467C13.6 121.667 39.0667 108.6 54 103L66.2667 98.4667L65.4667 104.067C63.6 116.2 62.9334 139.667 64.4 139.667C65.2 139.667 66.2667 137.667 66.6667 135.267C67.0667 133 68.8 123.267 70.4 113.667L73.3334 96.4667L79.3334 94.7333C82.6667 93.8 92 91.6667 100 90.0667C114.4 87.2667 118 85.9333 116.267 84.2C115.333 83.2667 89.7334 87.9333 80 91C73.0667 93 73.4667 93.8 75.8667 79.8C76.8 74.4667 78.4 69.5333 79.4667 69C81.3334 67.6667 107.733 62.7333 116 61.9333C126.933 61 133.6 61 141.867 62.3333Z" fill="black"/>
<path d="M238.8 39.2667C237.067 45.4 233.867 65.1333 233.067 75.2667C232.267 86.3333 232.133 86.6 226.933 91C220.267 96.7333 210.667 101.533 208 100.467C206.8 100.067 205.333 98.2 204.667 96.2C203.333 92.8667 203.2 92.7333 200.267 94.8667C193.067 100.2 189.467 102.067 187.867 101.4C181.2 98.8667 188.933 88.4667 197.6 88.4667C200.4 88.4667 203.733 89 205.067 89.5333C206.667 90.3333 207.333 90.0667 207.333 88.6C207.333 86.0667 204.533 85 197.067 85C192 85 190.4 85.6667 186.533 89.5333C183.067 93 182 95.1333 182 98.8667C182 107 188.8 107.933 197.733 101C201.067 98.3333 201.067 98.3333 202.933 101C206.4 105.933 216.933 103.4 228.4 94.6L232.667 91.4V95.1333C232.667 97.1333 231.733 99.8 230.533 101.133C228.667 103.267 228.667 103.533 231.2 105C232.933 105.933 234 107.8 234 110.067C234.133 114.6 238.667 136.867 239.867 137.933C242.133 140.333 242 135.667 239.333 121.533C236.933 108.733 236.8 105.8 238.267 104.733C240.4 103.267 266.133 104.733 268 106.467C270.4 108.867 273.867 107.533 278.267 102.467C282.4 97.5333 282.667 97.4 284 100.067C286.267 104.6 289.2 105.667 294.933 103.933C300.267 102.333 312.667 91.2667 312.667 88.0667C312.667 85.4 312 85.8 304.933 92.8667C295.6 102.2 286 103.4 286 95.1333C286 91.8 283.867 88.0667 282.667 89.2667C282.133 89.6667 280.4 92.7333 278.667 95.9333C276.8 99.5333 274.533 101.8 272.667 102.067C270 102.467 269.733 102.067 270.267 96.0667C270.8 87.6667 268.4 87 266.667 95.2667L265.333 101.667L251.067 101.267C243.067 101.133 236.667 100.6 236.667 100.2C236.667 99.8 241.2 95 246.8 89.6667C253.467 83.4 256.667 79.4 256 78.3333C255.333 77.2667 252.267 79.5333 246.133 85.5333C241.2 90.3333 236.8 94.3333 236.133 94.3333C234.533 94.3333 236.267 72.8667 239.467 54.6C240.8 46.2 242 38.8667 242 38.2C242 36.0667 239.467 37 238.8 39.2667Z" fill="black"/>
</svg>
